. 
 
http://www.torrenting.com          :     Once & For all ;)


               www . Torrenting . Com 

(((((((((((((= Enjoy No RAR releases =))))))))))))))))))))


...................................NFO:....................................

.








































          
          
              
              
                    
                    
                    
                    

Klown.Kamp.Massacre.2010.DVDRiP.XviD-SiC

Poster:
[img]http://img109.imageshack.us/img109/2268/klownkampmassacre.jpg[/img]

IMDB Link: 
http://www.imdb.com/title/tt1754022/

Description: Fifteen years ago, Edwin went to clown camp to fulfill his lifelong dream of bringing laughter to the world... but nobody laughed. Humiliated on graduation night, Edwin viciously murdered the entire camp before vanishing into legend. Now, despite the warnings of the town drunk, old man Bonzo has reopened the ranch and a new class of clowns have unwittingly signed up. When their die-hard instructor Sgt. Funnybone (Miguel Martinez, The Donor Conspiracy) is found dead in a puddle of cream pie and blood, the curriculum changes from comedy to survival! Edwin slashes, stabs, strangles, and disembowels the clowns while laughing insanely at his own bad jokes.





General
Complete name                    : Klown.Kamp.Massacre.2010.DVDRiP.XviD-SiC.avi
Format                           : AVI
Format/Info                      : Audio Video Interleave
File size                        : 1.37 GiB
Duration                         : 1h 23mn
Overall bit rate                 : 2 354 Kbps

Video
ID                               : 0
Format                           : MPEG-4 Visual
Format profile                   : Simple@L3
Format settings, BVOP            : 2
Format settings, QPel            : No
Format settings, GMC             : No warppoints
Format settings, Matrix          : Default (H.263)
Muxing mode                      : Packed bitstream
Codec ID                         : XVID
Codec ID/Hint                    : XviD
Duration                         : 1h 23mn
Bit rate                         : 2 090 Kbps
Width                            : 720 pixels
Height                           : 400 pixels
Display aspect ratio             : 16:9
Frame rate                       : 23.976 fps
Color space                      : YUV
Chroma subsampling               : 4:2:0
Bit depth                        : 8 bits
Scan type                        : Progressive
Compression mode                 : Lossy
Bits/(Pixel*Frame)               : 0.303
Stream size                      : 1.21 GiB (89%)
Writing library                  : XviD 1.0.3 (UTC 2004-12-20)

Audio
ID                               : 1
Format                           : AC-3
Format/Info                      : Audio Coding 3
Mode extension                   : CM (complete main)
Codec ID                         : 2000
Duration                         : 1h 23mn
Bit rate mode                    : Constant
Bit rate                         : 256 Kbps
Channel(s)                       : 2 channels
Channel positions                : Front: L R
Sampling rate                    : 48.0 KHz
Bit depth                        : 16 bits
Compression mode                 : Lossy
Stream size                      : 152 MiB (11%)
Alignment                        : Aligned on interleaves
Interleave, duration             : 64 ms (1.53 video frames)
Interleave, preload duration     : 192 ms
Title                            : VTS_03_1 T80 2_0ch 192Kbps DELAY 0ms_new

























Screenshots:
[img]http://img4.imageshack.us/img4/7248/vlcsnap2012013018h18m09.png[/img]
[img]http://img838.imageshack.us/img838/88/vlcsnap2012013018h18m17.png[/img]
[img]http://img839.imageshack.us/img839/3771/vlcsnap2012013018h18m19.png[/img]
[img]http://img716.imageshack.us/img716/4914/vlcsnap2012013018h18m22.png[/img]




Note :  

Source: Friend of a friend. 

Enjoy!

Respects to T00NG0D, CM8, Rx, ELEKTRI4KA, PA, YeFsTe, MrRep and everyone in the struggle...